<svg xmlns="http://www.w3.org/2000/svg" viewBox="0 0 500 500" width="500" height="500" class="illustration"><title>Video Editor</title><g id="Layer_20" data-name="Layer 20"><polygon points="275.61 231.32 275.61 273.56 317 251.6 275.61 231.32" fill="#6FFd3F"></polygon><rect x="48.39" y="100.4" width="22.81" height="318.44" fill="#6FFd3F"></rect><rect x="124.41" y="359.15" width="57.44" height="38.29" fill="#6FFd3F"></rect><rect x="220.14" y="359.15" width="57.44" height="38.29" fill="#6FFd3F"></rect><rect x="312.5" y="359.15" width="57.44" height="38.29" fill="#6FFd3F"></rect></g><g id="Layer_11" data-name="Layer 11"><path d="M438.41,90H61.7A20.83,20.83,0,0,0,40.91,110.8V171a5.93,5.93,0,0,0-.06.84V410.65a19.46,19.46,0,0,0,19.44,19.44H439.71a19.46,19.46,0,0,0,19.44-19.44V110.8A20.86,20.86,0,0,0,438.41,90ZM61.7,104H438.37a6.82,6.82,0,0,1,6.78,6.81v54.06H54.91V110.8A6.81,6.81,0,0,1,61.7,104Zm-1.41,312.1a5.45,5.45,0,0,1-5.44-5.44V341.38h390.3v69.27a5.45,5.45,0,0,1-5.44,5.44Zm75.46-88.71H54.85V178.86h80.9Zm14-148.52h295.4V327.38H149.75Z" fill="#302117"></path><path d="M85.82,135.45a6.42,6.42,0,0,0,.65,1.21,6.35,6.35,0,0,0,1.93,1.93,7.05,7.05,0,0,0,1.21.65,7.5,7.5,0,0,0,1.3.4,7.16,7.16,0,0,0,1.38.13,7,7,0,0,0,4.94-2,7.47,7.47,0,0,0,.88-1.07,7,7,0,0,0,.64-1.21,8.27,8.27,0,0,0,.4-1.31,7,7,0,0,0-8.24-8.23,7.5,7.5,0,0,0-1.3.4,7.77,7.77,0,0,0-1.21.64,7.47,7.47,0,0,0-1.07.88,7,7,0,0,0-2,4.94,7.84,7.84,0,0,0,.12,1.37A8.3,8.3,0,0,0,85.82,135.45Z" fill="#302117"></path><path d="M119.33,135.45a7.82,7.82,0,0,0,.65,1.21,7.4,7.4,0,0,0,.87,1.07,6.33,6.33,0,0,0,1.06.86,7.05,7.05,0,0,0,1.21.65,7.35,7.35,0,0,0,1.31.4,6.82,6.82,0,0,0,1.36.13,7.06,7.06,0,0,0,5-2,8.13,8.13,0,0,0,.87-1.07,7.77,7.77,0,0,0,.64-1.21,6.61,6.61,0,0,0,.4-1.31,7,7,0,0,0,.13-1.37,7.07,7.07,0,0,0-2-4.94,6.88,6.88,0,0,0-1.06-.88,7.77,7.77,0,0,0-1.21-.64,7.21,7.21,0,0,0-1.32-.4,7,7,0,0,0-2.73,0,7.35,7.35,0,0,0-1.31.4,7.77,7.77,0,0,0-1.21.64,6.44,6.44,0,0,0-1.06.88,6.82,6.82,0,0,0-.87,1.06,7.82,7.82,0,0,0-.65,1.21,7.35,7.35,0,0,0-.4,1.31,6.72,6.72,0,0,0,0,2.73A7.35,7.35,0,0,0,119.33,135.45Z" fill="#302117"></path><path d="M152.85,135.45a7,7,0,0,0,.64,1.21,8.13,8.13,0,0,0,.87,1.07,6.4,6.4,0,0,0,1.07.86,6.87,6.87,0,0,0,1.19.65,8.3,8.3,0,0,0,1.32.4,7.14,7.14,0,0,0,1.37.13,7,7,0,0,0,1.37-.13,7.61,7.61,0,0,0,1.31-.4,7.05,7.05,0,0,0,1.21-.65,6.76,6.76,0,0,0,1.06-.86,7.33,7.33,0,0,0,.86-1.07,7.87,7.87,0,0,0,.66-1.21,6.56,6.56,0,0,0,.38-1.31,5.75,5.75,0,0,0,.15-1.37,7,7,0,0,0-2.05-4.94,6.88,6.88,0,0,0-1.06-.88,7.77,7.77,0,0,0-1.21-.64,7.61,7.61,0,0,0-1.31-.4,7,7,0,0,0-2.74,0,8.3,8.3,0,0,0-1.32.4,6.77,6.77,0,0,0-1.19.64,6.51,6.51,0,0,0-1.07.88,6.94,6.94,0,0,0-1.91,6.31A6,6,0,0,0,152.85,135.45Z" fill="#302117"></path><path d="M291.1,188.85a63.31,63.31,0,1,0,63.31,63.31A63.38,63.38,0,0,0,291.1,188.85Zm0,112.62a49.31,49.31,0,1,1,49.31-49.31A49.37,49.37,0,0,1,291.1,301.47Z" fill="#302117"></path><path d="M321.39,245.57l-44.08-22.12a7,7,0,0,0-10.14,6.25V274a7,7,0,0,0,3.33,5.95,6.94,6.94,0,0,0,6.81.3l44.08-22.12a7,7,0,0,0,0-12.51Zm-40.22,17V241.05l21.47,10.77Z" fill="#302117"></path><path d="M72.61,219.74H110.9a7,7,0,0,0,0-14H72.61a7,7,0,0,0,0,14Z" fill="#302117"></path><path d="M72.61,260.29H110.9a7,7,0,0,0,0-14H72.61a7,7,0,1,0,0,14Z" fill="#302117"></path><path d="M72.61,300.83H110.9a7,7,0,1,0,0-14H72.61a7,7,0,0,0,0,14Z" fill="#302117"></path><path d="M183.27,349.34H124.14a7,7,0,0,0-7,7v42.23a7,7,0,0,0,7,7h59.13a7,7,0,0,0,7-7V356.34A7,7,0,0,0,183.27,349.34Zm-7,42.23H131.14V363.34h45.13Z" fill="#302117"></path><path d="M279.56,349.34H220.44a7,7,0,0,0-7,7v42.23a7,7,0,0,0,7,7h59.12a7,7,0,0,0,7-7V356.34A7,7,0,0,0,279.56,349.34Zm-7,42.23H227.44V363.34h45.12Z" fill="#302117"></path><path d="M375.86,349.34H316.73a7,7,0,0,0-7,7v42.23a7,7,0,0,0,7,7h59.13a7,7,0,0,0,7-7V356.34A7,7,0,0,0,375.86,349.34Zm-7,42.23H323.73V363.34h45.13Z" fill="#302117"></path></g></svg>