<svg xmlns="http://www.w3.org/2000/svg" viewBox="0 0 500 500" width="500" height="500" class="illustration"><title>34. Calculator</title><g id="Layer_1" data-name="Layer 1"><rect x="297.85" y="220.63" width="76.58" height="74.33" fill="#6FFD3F"></rect><rect x="128.92" y="120.39" width="20.27" height="59.69" fill="#6FFD3F"></rect><rect x="131.17" y="222.88" width="16.89" height="166.68" fill="#6FFD3F"></rect><rect x="131.17" y="367.04" width="166.68" height="16.89" fill="#6FFD3F"></rect></g><g id="Layer_5" data-name="Layer 5"><rect x="134.23" y="308.43" width="39.5" height="30.77" fill="none"></rect><rect x="237.28" y="263.67" width="51.88" height="30.77" fill="none"></rect><rect x="134.23" y="263.67" width="39.5" height="30.77" fill="none"></rect><rect x="187.73" y="308.43" width="35.55" height="30.77" fill="none"></rect><rect x="237.28" y="353.2" width="51.88" height="26.54" fill="none"></rect><rect x="187.73" y="353.2" width="35.55" height="26.54" fill="none"></rect><rect x="303.17" y="223.12" width="65.4" height="70.47" fill="none"></rect><rect x="237.28" y="308.43" width="51.88" height="30.77" fill="none"></rect><rect x="187.73" y="263.67" width="35.55" height="30.77" fill="none"></rect><rect x="187.73" y="223.12" width="35.55" height="26.54" fill="none"></rect><rect x="134.23" y="353.2" width="39.5" height="26.54" fill="none"></rect><rect x="237.28" y="223.12" width="51.88" height="26.54" fill="none"></rect><rect x="134.23" y="223.12" width="39.5" height="26.54" fill="none"></rect><rect x="131.99" y="128.52" width="236.03" height="46.82" fill="none"></rect><path d="M135.69,418.69H364.31a27.38,27.38,0,0,0,27.35-27.35V108.66a27.38,27.38,0,0,0-27.35-27.35H135.69a27.38,27.38,0,0,0-27.35,27.35V391.34A27.38,27.38,0,0,0,135.69,418.69Zm246.88-118.1v86.53a7,7,0,0,1-7,7h-79.4a7.16,7.16,0,0,1-2.24-.37H127.23a7,7,0,0,1-7-7V216.12a7,7,0,0,1,7-7H375.57a7,7,0,0,1,7,7ZM118,121.52a7,7,0,0,1,7-7H375a7,7,0,0,1,7,7v60.81a7,7,0,0,1-7,7H125a7,7,0,0,1-7-7Z" fill="none"></path><rect x="303.17" y="309.65" width="65.4" height="70.47" fill="none"></rect><path d="M135.69,432.69H364.31a41.4,41.4,0,0,0,41.35-41.35V108.66a41.4,41.4,0,0,0-41.35-41.35H135.69a41.4,41.4,0,0,0-41.35,41.35V391.34A41.4,41.4,0,0,0,135.69,432.69Zm-27.35-324a27.38,27.38,0,0,1,27.35-27.35H364.31a27.38,27.38,0,0,1,27.35,27.35V391.34a27.38,27.38,0,0,1-27.35,27.35H135.69a27.38,27.38,0,0,1-27.35-27.35Z" fill="#302117"></path><path d="M125,189.33H375a7,7,0,0,0,7-7V121.52a7,7,0,0,0-7-7H125a7,7,0,0,0-7,7v60.81A7,7,0,0,0,125,189.33Zm7-60.81H368v46.81H132Z" fill="#302117"></path><path d="M375.57,209.12H127.23a7,7,0,0,0-7,7V386.75a7,7,0,0,0,7,7h166.7a7.16,7.16,0,0,0,2.24.37h79.4a7,7,0,0,0,7-7v-171A7,7,0,0,0,375.57,209.12Zm-7,84.47h-65.4V223.12h65.4ZM223.28,263.67v30.76H187.73V263.67Zm-35.55-14V223.12h35.55v26.55ZM289.17,339.2H237.28V308.43h51.89Zm0-44.77H237.28V263.67h51.89Zm-115.44,0h-39.5V263.67h39.5Zm-39.5,14h39.5V339.2h-39.5Zm53.5,0h35.55V339.2H187.73Zm35.55,44.77v26.55H187.73V353.2Zm14,0h51.89v26.55H237.28Zm51.89-103.53H237.28V223.12h51.89ZM173.73,223.12v26.55h-39.5V223.12ZM134.23,353.2h39.5v26.55h-39.5Zm168.94,26.92V309.65h65.4v70.47Z" fill="#302117"></path></g></svg>