<svg xmlns="http://www.w3.org/2000/svg" viewBox="0 0 500 500" width="500" height="500" class="illustration"><g id="Layer_10" data-name="Layer 10"><rect x="111.34" y="396.21" width="111.45" height="63.45" fill="#6FFD3F"></rect><path d="M229.57,125.52h0a67.13,67.13,0,0,1,67.13,67.13v0a0,0,0,0,1,0,0H229.57a0,0,0,0,1,0,0V125.52A0,0,0,0,1,229.57,125.52Z" fill="#6FFD3F"></path></g><g id="Layer_3" data-name="Layer 3"><path d="M144.47,405.54a7,7,0,0,1-6.3-10c.24-.51,24.65-52.87-3.84-101.29l-.23-.39c-14.52-24.69-29.54-50.22-37.29-78.49-10.68-39-6.29-74.23,13.81-110.91C130,69,176.65,47.76,229.45,50.23c27.27,1.28,53.3,9,75.26,22.19a135,135,0,0,1,54.67,62.45,97.73,97.73,0,0,1,7.85,38.93v14.62a45,45,0,0,0,6.84,23.85l22.72,36.35a16.45,16.45,0,0,1-6.12,23.19l-16.64,9a16.42,16.42,0,0,0-8.56,13,15.51,15.51,0,0,0-.07,1.71l.55,35.72a24.64,24.64,0,0,1-23.1,25l-41.08,2.61c.46,9.09,1.5,25.57,3.46,38.33a7,7,0,0,1-13.84,2.12c-3-19.34-3.87-45.66-3.91-46.77a7,7,0,0,1,6.55-7.22l47.93-3a10.66,10.66,0,0,0,10-10.8l-.55-35.72a27.1,27.1,0,0,1,.13-3.16,30.36,30.36,0,0,1,15.84-24.11l16.64-9a2.45,2.45,0,0,0,.91-3.45L362.2,219.69a58.92,58.92,0,0,1-9-31.27V173.8a83.6,83.6,0,0,0-6.71-33.38C327,95.25,283,66.77,228.79,64.21,182,62,139.49,80.87,122.9,111.14c-18.24,33.3-22.24,65.23-12.59,100.49,7.26,26.47,21.8,51.19,35.86,75.09l.23.39c32.34,55,5.54,112.06,4.38,114.47A7,7,0,0,1,144.47,405.54Z" fill="#302117"></path><path d="M342.86,465.76H111.54a7,7,0,0,1-7-7V398.25a7,7,0,0,1,7-7H342.86a7,7,0,0,1,7,7v60.51A7,7,0,0,1,342.86,465.76Zm-224.32-14H335.86V405.25H118.54Z" fill="#302117"></path><path d="M229.79,263.76a71.32,71.32,0,0,1,0-142.64,7,7,0,0,1,7,7v57.32h57.32a7,7,0,0,1,7,7A71.41,71.41,0,0,1,229.79,263.76Zm-7-128.21a57.32,57.32,0,1,0,63.89,63.89H229.79a7,7,0,0,1-7-7Z" fill="#302117"></path><path d="M294.11,199.44H229.79a7,7,0,0,1-7-7V128.12a7,7,0,0,1,7-7,71.4,71.4,0,0,1,71.32,71.32A7,7,0,0,1,294.11,199.44Zm-57.32-14h49.89a57.43,57.43,0,0,0-49.89-49.89Z" fill="#302117"></path></g></svg>