<?xml version="1.0" encoding="UTF-8"?>
<svg width="1200pt" height="1200pt" version="1.1" viewBox="0 0 1200 1200" xmlns="http://www.w3.org/2000/svg">
 <path d="m750.98 1140h-301.97c-10.078 0-18.281-8.1562-18.281-18.281v-118.5c0-59.156 48.328-107.48 107.48-107.48h123.56c59.156 0 107.48 48.328 107.48 107.48v118.5c0 10.078-8.1562 18.281-18.281 18.281zm-370.74-1080h-301.97c-10.078 0-18.281 8.1562-18.281 18.281v359.63c0 10.078 8.2031 18.281 18.281 18.281h132.74v326.06c0 10.078 8.1562 18.234 18.281 18.234h197.02c10.078 0 18.281-8.1562 18.281-18.234s-8.1562-18.281-18.281-18.281h-178.74v-307.78h132.74c10.078 0 18.281-8.1562 18.281-18.281l-0.09375-359.63c0-10.078-8.2031-18.281-18.281-18.281zm-239.26 213.74c-7.125-7.125-7.125-18.703 0-25.828s18.703-7.125 25.828 0l35.484 35.484 89.438-89.438c7.125-7.125 18.703-7.125 25.828 0s7.125 18.703 0 25.828l-102.33 102.33c-7.125 7.125-18.703 7.125-25.828 0l-48.375-48.375zm609.98-213.74c10.078 0 18.281 8.1562 18.281 18.281v359.63c0 10.078-8.2031 18.281-18.281 18.281h-132.74v119.2c0 10.078-8.1562 18.281-18.281 18.281-10.078 0-18.281-8.1562-18.281-18.281v-119.2h-132.74c-10.078 0-18.281-8.1562-18.281-18.281l0.09375-359.63c0-10.078 8.1562-18.281 18.281-18.281zm-239.29 213.74 48.375 48.375c7.125 7.125 18.703 7.125 25.828 0l102.33-102.33c7.125-7.125 7.125-18.703 0-25.828s-18.703-7.125-25.828 0l-89.438 89.438-35.484-35.484c-7.125-7.125-18.703-7.125-25.828 0s-7.125 18.703 0 25.828zm370.74 0c-7.125-7.125-7.125-18.703 0-25.828s18.703-7.125 25.828 0l35.484 35.484 89.438-89.438c7.125-7.125 18.703-7.125 25.828 0s7.125 18.703 0 25.828l-102.33 102.33c-7.125 7.125-18.703 7.125-25.828 0l-48.375-48.375zm239.26-213.74h-301.97c-10.078 0-18.281 8.1562-18.281 18.281v359.63c0 10.078 8.1562 18.281 18.281 18.281h132.74v307.78h-178.55c-10.078 0-18.234 8.1562-18.234 18.281 0 10.078 8.1562 18.234 18.234 18.234h196.82c10.078 0 18.281-8.1562 18.281-18.234v-326.06h132.74c10.078 0 18.281-8.1562 18.281-18.281l-0.046875-359.63c0-10.078-8.2031-18.281-18.281-18.281zm-606.05 607.69c46.594-46.594 122.06-46.594 168.66 0 46.594 46.594 46.594 122.06 0 168.66-46.594 46.594-122.06 46.594-168.66 0-46.594-46.594-46.594-122.06 0-168.66z" fill-rule="evenodd"/>
</svg>
